<svg xmlns="http://www.w3.org/2000/svg" viewBox="0 0 512 512">
  <!-- Brand background -->
  <rect width="512" height="512" fill="#D1D9C5"/>

  <!-- logo-pin scaled to 70% and centered: translate(76.8, 76.8) scale(0.70) -->
  <g transform="translate(77, 64) scale(0.70)">
    <defs>
      <clipPath id="pin">
        <path d="M256 40C142 40 52 130 52 244C52 340 256 474 256 474C256 474 460 340 460 244C460 130 370 40 256 40Z"/>
      </clipPath>
    </defs>

    <!-- White sky interior -->
    <path d="M256 40C142 40 52 130 52 244C52 340 256 474 256 474C256 474 460 340 460 244C460 130 370 40 256 40Z" fill="white"/>

    <!-- Dark sage base -->
    <ellipse cx="256" cy="450" rx="250" ry="160" fill="#4A5C44" clip-path="url(#pin)"/>

    <!-- Left sage-green hill -->
    <ellipse cx="148" cy="358" rx="222" ry="138" fill="#92998B" clip-path="url(#pin)"/>

    <!-- Right soft-blue hill -->
    <ellipse cx="374" cy="318" rx="184" ry="118" fill="#7D8DCC" clip-path="url(#pin)"/>

    <!-- White diagonal road -->
    <path d="M52 412 L460 294" fill="none" stroke="white" stroke-width="22" stroke-linecap="butt" clip-path="url(#pin)"/>

    <!-- Plum pin outline -->
    <path d="M256 40C142 40 52 130 52 244C52 340 256 474 256 474C256 474 460 340 460 244C460 130 370 40 256 40Z"
          fill="none" stroke="#614270" stroke-width="30" stroke-linejoin="round"/>
  </g>
</svg>
